<svg id="visual" viewBox="0 0 900 600" width="900" height="600" xmlns="http://www.w3.org/2000/svg" xmlns:xlink="http://www.w3.org/1999/xlink" version="1.1"><g transform="translate(422.6944740292345 271.2277314592298)"><path d="M206.9 -223.9C267.6 -195.6 316 -129.9 333.6 -55.1C351.2 19.7 338 103.6 295.3 163.9C252.6 224.3 180.5 261.1 106.4 284.8C32.3 308.5 -43.9 319.2 -114.5 299.9C-185.1 280.6 -250.2 231.3 -274.3 168.5C-298.5 105.8 -281.7 29.5 -268.1 -47.3C-254.6 -124.1 -244.3 -201.5 -200.1 -232.7C-156 -264 -78 -249.2 -2.5 -246.3C73.1 -243.3 146.1 -252.3 206.9 -223.9" fill="#2563EB"></path></g></svg>